<svg width="140" height="63" viewBox="0 0 140 63" fill="none" xmlns="http://www.w3.org/2000/svg">
<path d="M11.6797 5.8147C1.49912 5.8147 0 15.3419 0 34.1725C0 53.0032 2.34937 62.9776 14.1186 63C32.7569 63.0224 45.2645 53.4728 45.2645 36.8562C45.2645 23.5942 34.5245 5.8147 11.6797 5.8147Z" fill="#F1B71C"/>
<path d="M35.0839 1.11821C42.7809 1.11821 49.0683 7.33546 49.0683 14.984C49.0683 22.6326 42.8033 28.8498 35.0839 28.8498C27.3646 28.8498 21.0996 22.6326 21.0996 14.984C21.0996 7.33546 27.3646 1.11821 35.0839 1.11821ZM35.0839 0C26.7381 0 19.9808 6.70927 19.9808 14.984C19.9808 23.2588 26.7381 29.9681 35.0839 29.9681C43.4298 29.9681 50.187 23.2588 50.187 14.984C50.187 6.70927 43.4074 0 35.0839 0Z" fill="#1C232B"/>
<path d="M9.03949 48.8658V29.7444C9.03949 29.476 9.26324 29.2524 9.53174 29.2524H16.6246C23.091 29.2524 26.8947 33.8818 26.8947 39.3163C26.8947 44.7508 23.1357 49.3802 16.6246 49.3802H9.53174C9.26324 49.3802 9.03949 49.1565 9.03949 48.8658ZM13.6935 44.9521C13.6935 45.2204 13.9172 45.4441 14.1857 45.4441H16.1771C20.1375 45.4441 22.0617 42.492 22.0617 39.2939C22.0617 36.0958 20.1375 33.1438 16.1771 33.1438H14.1857C13.9172 33.1438 13.6935 33.3674 13.6935 33.6358V44.9521Z" fill="#1C232B"/>
<path d="M42.9599 43.4089H33.3387C33.1373 43.4089 32.9807 43.5878 33.003 43.7891C33.2268 45.3993 34.435 46.2492 36.2922 46.2492C37.5452 46.2492 38.373 45.9361 38.7981 45.2428C38.8876 45.0862 39.0443 44.9968 39.2456 44.9968H42.6914C43.027 44.9968 43.2731 45.3322 43.1836 45.6677C42.4229 48.083 39.7379 49.6485 36.2922 49.6485C31.4815 49.6485 28.5057 46.9201 28.5057 42.2013C28.5057 37.4824 31.5263 34.754 36.1355 34.754C40.7448 34.754 43.5416 37.4824 43.5416 41.4856C43.5416 42.0671 43.5193 42.4696 43.4745 42.984C43.4521 43.2076 43.2284 43.4089 42.9599 43.4089ZM38.8205 40.6134C38.9771 40.6134 39.1114 40.4792 39.089 40.3227C38.9548 38.623 37.9255 37.7508 36.1132 37.7508C34.3008 37.7508 33.1373 38.7572 32.9807 40.3227C32.9583 40.4792 33.0925 40.6134 33.2492 40.6134H38.8205Z" fill="#1C232B"/>
<path d="M45.712 44.9968H49.1801C49.4262 44.9968 49.6052 45.1757 49.6724 45.3994C49.8961 46.1597 50.7464 46.6518 51.9322 46.6518C52.8944 46.6518 53.5656 46.1821 53.5656 45.3546C53.5656 44.7061 53.2524 44.3259 52.0441 44.0351L49.0906 43.2971C46.8307 42.738 45.533 41.3067 45.533 39.1597C45.533 36.4984 47.9495 34.7316 51.5742 34.7316C55.199 34.7316 57.5483 36.0735 57.8616 38.5335C57.9063 38.8466 57.6602 39.0927 57.347 39.0927H53.8789C53.6551 39.0927 53.4537 38.9137 53.409 38.6901C53.23 37.9521 52.5587 37.5719 51.5071 37.5719C50.545 37.5719 49.8961 38.0415 49.8961 38.7125C49.8961 39.3834 50.2989 39.7636 51.4624 40.0543L54.4606 40.8818C56.6981 41.4633 58.0406 42.8275 58.0406 44.9521C58.0406 47.8818 55.6017 49.6262 51.8427 49.6262C48.0837 49.6262 45.533 48.016 45.1974 45.5559C45.1526 45.2652 45.3988 44.9968 45.712 44.9968Z" fill="#1C232B"/>
<path d="M59.853 31.2652C59.853 29.7444 60.9941 28.5144 62.6051 28.5144C64.2161 28.5144 65.4019 29.7444 65.4019 31.2652C65.4019 32.786 64.2385 33.9936 62.6051 33.9936C60.9717 33.9936 59.853 32.7636 59.853 31.2652ZM60.39 48.8658V35.738C60.39 35.4473 60.6137 35.2237 60.9046 35.2237H64.3503C64.6412 35.2237 64.865 35.4473 64.865 35.738V48.8658C64.865 49.1566 64.6412 49.3802 64.3503 49.3802H60.9046C60.6137 49.3802 60.39 49.1342 60.39 48.8658Z" fill="#1C232B"/>
<path d="M78.3123 35.2683H81.758C82.0489 35.2683 82.2727 35.492 82.2727 35.7827V48.4185C82.2503 51.1246 81.2882 53.1374 79.5653 54.345C78.2899 55.2396 76.5671 55.5974 74.5533 55.5974C72.5396 55.5974 71.0852 55.2843 69.6979 54.4568C68.4673 53.6965 67.6842 52.4441 67.4157 51.1469C67.3486 50.8338 67.5947 50.5431 67.9079 50.5431H71.3313C71.5551 50.5431 71.7341 50.6773 71.8012 50.8786C72.1368 51.7731 72.8528 52.3099 74.4638 52.3099C76.5223 52.3099 77.7977 51.4153 77.7977 48.9105V47.0543C77.104 48.4409 75.2246 49.3354 73.3898 49.3354C69.2281 49.3354 67.1024 46.3163 67.1024 42.1565C67.1024 37.9968 69.4071 34.9105 73.4569 34.9105C75.3812 34.9105 77.104 35.8498 77.7977 37.3035V35.8051C77.82 35.5144 78.0438 35.2683 78.3123 35.2683ZM78.0214 42.2013C78.0214 40.1661 76.7684 38.5335 74.6428 38.5335C72.6291 38.5335 71.5551 40.0767 71.5551 42.2013C71.5551 44.3259 72.6514 45.869 74.6428 45.869C76.7684 45.8914 78.0214 44.2588 78.0214 42.2013Z" fill="#1C232B"/>
<path d="M85.0919 48.8658V35.738C85.0919 35.4473 85.3156 35.2236 85.6065 35.2236H89.0746C89.3655 35.2236 89.5893 35.4473 89.5893 35.738V37.2811C90.4171 35.6933 92.0281 34.8434 94.1761 34.8434C97.6219 34.8434 99.3447 36.7891 99.3447 40.6358V48.8658C99.3447 49.1565 99.121 49.3802 98.8301 49.3802H95.3396C95.0487 49.3802 94.825 49.1565 94.825 48.8658V42.1118C94.825 39.7412 94.1537 38.6454 92.3414 38.6454C90.529 38.6454 89.6116 39.8083 89.6116 42V48.8882C89.6116 49.1789 89.3879 49.4025 89.097 49.4025H85.6289C85.3156 49.3802 85.0919 49.1342 85.0919 48.8658Z" fill="#1C232B"/>
<path d="M119.191 46.2269V48.8658C119.191 49.1566 118.968 49.3802 118.677 49.3802H116.193C114.067 49.3802 111.181 49.0224 111.181 44.2812V38.6454H109.458C109.167 38.6454 108.944 38.4217 108.944 38.131V35.6039C108.944 35.3131 109.167 35.0895 109.458 35.0895H111.181V31.3994C111.181 31.1086 111.405 30.885 111.696 30.885H115.164C115.455 30.885 115.678 31.1086 115.678 31.3994V35.0895H118.363C118.654 35.0895 118.878 35.3131 118.878 35.6039V38.131C118.878 38.4217 118.654 38.6454 118.363 38.6454H115.678V43.2077C115.678 45.2876 116.529 45.7348 117.647 45.7348C117.961 45.7348 118.319 45.7348 118.654 45.7125C118.945 45.6901 119.191 45.9138 119.191 46.2269Z" fill="#1C232B"/>
<path d="M101.47 31.2652C101.47 29.7444 102.611 28.5144 104.222 28.5144C105.833 28.5144 107.019 29.7444 107.019 31.2652C107.019 32.786 105.856 33.9936 104.222 33.9936C102.589 33.9936 101.47 32.7636 101.47 31.2652ZM102.007 48.8658V35.738C102.007 35.4473 102.231 35.2237 102.522 35.2237H105.968C106.259 35.2237 106.482 35.4473 106.482 35.738V48.8658C106.482 49.1566 106.259 49.3802 105.968 49.3802H102.522C102.231 49.3802 102.007 49.1342 102.007 48.8658Z" fill="#1C232B"/>
<path d="M135.883 35.3579C135.771 35.1789 135.57 35.0895 135.368 35.0895H132.146C131.923 35.0895 131.721 35.2237 131.654 35.4473L128.544 45.2205L125.322 35.4473C125.255 35.246 125.054 35.0895 124.83 35.0895H121.496C121.295 35.0895 121.093 35.1789 120.981 35.3579C120.869 35.5368 120.825 35.738 120.914 35.9393L125.904 49.2908C126.016 49.5591 126.083 49.8722 126.083 50.1853C126.083 50.6102 125.949 50.9904 125.702 51.3483C125.456 51.6837 125.076 51.885 124.584 51.9521H124.181C123.98 51.9521 123.196 51.9297 122.592 51.9297C122.301 51.9297 122.078 52.1534 122.078 52.4441V55.0384C122.078 55.3291 122.301 55.5527 122.592 55.5527H124.696C126.128 55.5527 127.246 55.2844 128.052 54.7476C128.857 54.2109 129.506 53.3163 129.954 52.0863L135.95 35.9393C136.017 35.7604 135.995 35.5368 135.883 35.3579Z" fill="#1C232B"/>
<path d="M137.091 49.6262C137.36 49.6262 137.628 49.6709 137.874 49.738C138.12 49.8051 138.367 49.917 138.568 50.0288C138.792 50.163 138.971 50.2971 139.15 50.4761C139.329 50.655 139.485 50.8563 139.597 51.0575C139.731 51.2812 139.821 51.5048 139.888 51.7508C139.955 51.9968 140 52.2652 140 52.5336C140 52.8019 139.955 53.0479 139.888 53.3163C139.821 53.5623 139.709 53.8083 139.597 54.0096C139.463 54.2333 139.329 54.4122 139.15 54.5911C138.971 54.77 138.769 54.9265 138.568 55.0384C138.344 55.1725 138.12 55.262 137.874 55.3291C137.628 55.3962 137.36 55.4409 137.091 55.4409C136.823 55.4409 136.554 55.3962 136.308 55.3291C136.062 55.262 135.838 55.1502 135.614 55.0384C135.391 54.9042 135.212 54.77 135.033 54.5911C134.854 54.4122 134.697 54.2109 134.585 54.0096C134.451 53.786 134.361 53.5623 134.294 53.3163C134.227 53.0703 134.182 52.8019 134.182 52.5336C134.182 52.2652 134.227 51.9968 134.294 51.7508C134.361 51.5048 134.473 51.2588 134.585 51.0575C134.719 50.8339 134.854 50.655 135.033 50.4761C135.212 50.2971 135.413 50.1406 135.614 50.0288C135.838 49.8946 136.062 49.8051 136.308 49.738C136.577 49.6709 136.823 49.6262 137.091 49.6262ZM137.091 54.9936C137.315 54.9936 137.539 54.9713 137.74 54.9042C137.941 54.8371 138.143 54.77 138.322 54.6582C138.501 54.5463 138.657 54.4345 138.814 54.278C138.971 54.1214 139.083 53.9649 139.194 53.786C139.306 53.6071 139.373 53.4058 139.441 53.2045C139.508 53.0032 139.53 52.7796 139.53 52.5559C139.53 52.3323 139.508 52.1087 139.441 51.885C139.373 51.6837 139.306 51.4825 139.194 51.3035C139.083 51.1246 138.971 50.9457 138.814 50.8115C138.657 50.655 138.501 50.5432 138.322 50.4313C138.143 50.3195 137.941 50.2524 137.74 50.1853C137.539 50.1182 137.315 50.0959 137.091 50.0959C136.867 50.0959 136.644 50.1182 136.442 50.1853C136.241 50.2524 136.04 50.3195 135.883 50.4313C135.704 50.5432 135.547 50.6773 135.391 50.8115C135.256 50.9681 135.122 51.1246 135.01 51.3035C134.898 51.4825 134.831 51.6837 134.764 51.885C134.697 52.0863 134.675 52.3099 134.675 52.5559C134.675 52.8914 134.742 53.2269 134.854 53.5176C134.966 53.8083 135.145 54.0767 135.368 54.3003C135.592 54.524 135.838 54.7029 136.129 54.8147C136.442 54.9489 136.756 54.9936 137.091 54.9936ZM137.091 50.7668C137.583 50.7668 137.941 50.8563 138.165 51.0352C138.389 51.2141 138.501 51.4601 138.501 51.7956C138.501 52.0416 138.434 52.2428 138.322 52.4217C138.21 52.6007 138.009 52.7348 137.762 52.8019C137.83 52.8467 137.874 52.8914 137.919 52.9361C137.964 52.9809 138.009 53.0479 138.031 53.115L138.747 54.3227H137.941C137.83 54.3227 137.74 54.278 137.695 54.1885L137.136 53.1374C137.114 53.0927 137.069 53.0703 137.046 53.0479C137.024 53.0256 136.957 53.0256 136.89 53.0256H136.666V54.3227H135.816V50.7668H137.091ZM137.002 52.4217C137.136 52.4217 137.248 52.3994 137.337 52.377C137.427 52.3547 137.494 52.3099 137.539 52.2652C137.583 52.2205 137.628 52.1757 137.651 52.1087C137.673 52.0416 137.673 51.9745 137.673 51.885C137.673 51.7956 137.673 51.7285 137.651 51.6614C137.628 51.5943 137.606 51.5495 137.561 51.5048C137.516 51.4601 137.449 51.4377 137.382 51.4154C137.315 51.393 137.203 51.393 137.091 51.393H136.666V52.3994H137.002V52.4217Z" fill="#1C232B"/>
</svg>
