 <svg width="231" height="641" viewBox="0 0 231 641" fill="none" xmlns="http://www.w3.org/2000/svg">
<path opacity="0.11" d="M221.681 328.89C234.215 316.904 229.045 296.422 215.439 287.838C211.125 285.594 206.825 283.37 203.412 280.377C199.467 276.918 197.253 271.891 197.104 266.649C196.453 243.282 172.845 237.189 162.13 251.409C155.643 260.018 156.929 272.209 164.8 279.573C170.683 285.071 177.124 288.274 174.47 304.611C173.809 308.669 173.983 312.841 175.228 316.761C181.147 335.352 206.436 344.479 221.676 328.895" stroke="#1A1A1A" stroke-width="3" stroke-miterlimit="10"/>
<path opacity="0.11" d="M49.8182 286.316C67.1438 280.91 60.6563 259.244 56.4645 246.546C54.179 240.878 49.895 231.967 43.0642 234.211C40.1689 235.124 39.2977 237.465 39.2362 240.212C41.5679 250.133 38.2113 258.414 34.3578 267.607C30.2788 277.339 38.2934 288.049 48.7318 286.521C49.1007 286.465 49.4646 286.398 49.813 286.316H49.8182Z" stroke="#1A1A1A" stroke-width="3" stroke-miterlimit="10"/>
<path opacity="0.11" d="M38.4369 188.2C47.4815 210.358 75.22 199.412 91.4387 192.484C98.6283 188.845 109.861 182.219 106.146 173.498C104.619 169.798 101.447 168.911 97.8289 169.142C85.0537 173.318 73.8005 169.829 61.2867 165.801C48.0452 161.532 34.8652 173.257 38.0423 186.806C38.1551 187.287 38.2832 187.754 38.4318 188.205L38.4369 188.2Z" stroke="#1A1A1A" stroke-width="3" stroke-miterlimit="10"/>
<path opacity="0.11" d="M225.704 195.076C233.98 169.382 201.588 158.314 182.259 152.303C173.276 150.12 158.554 147.527 155.433 157.755C154.065 162.054 156.207 165.16 159.553 167.63C173.835 173.472 181.178 184.766 189.218 197.454C197.73 210.885 217.899 210.542 225.022 196.567C225.273 196.075 225.504 195.578 225.704 195.076V195.076Z" stroke="#1A1A1A" stroke-width="3" stroke-miterlimit="10"/>
<path opacity="0.11" d="M118.86 189.122C115.411 193.513 116.477 200.698 122.472 202.425C129.626 205.125 138.204 206.739 142.171 214.113C145.173 219.499 147.684 228.831 152.409 229.579C164.954 231.562 173.43 212.099 171.902 200.257C167.69 176.311 133.372 170.822 118.86 189.116V189.122Z" stroke="#1A1A1A" stroke-width="3" stroke-miterlimit="10"/>
<path opacity="0.11" d="M13.4911 208.261C20.8908 202.881 26.4969 194.707 27.6448 185.627C28.7926 176.552 25.0262 166.728 17.4062 161.655C11.8821 157.976 5.0461 157.007 -1.14932 154.634C-9.4355 151.457 -16.6814 145.621 -21.5445 138.195C-25.2751 132.502 -27.7245 125.82 -32.7516 121.239C-38.5627 115.945 -47.638 114.423 -54.7046 117.867C-61.7711 121.31 -66.1986 129.663 -64.7279 137.391C-63.3392 144.678 -57.5025 150.263 -51.4711 154.578C-45.4345 158.893 -38.7574 162.608 -34.1813 168.445C-28.5803 175.583 -26.8739 184.904 -23.9068 193.483C-20.9347 202.056 -15.6002 210.936 -6.82203 213.227C1.58713 215.415 10.0527 210.767 13.4911 208.267" stroke="#1A1A1A" stroke-width="3" stroke-miterlimit="10"/>
<path opacity="0.11" d="M31.0628 82.3905C28.7568 80.228 26.0767 78.086 23.1558 76.5231C20.2349 74.9601 17.0782 73.9711 13.8242 74.1197C9.56582 74.3144 6.46556 76.313 4.13907 79.0853C1.81771 81.8576 0.270149 85.4088 -0.862347 88.7089C-4.34183 102.038 -12.1309 113.521 -15.3952 126.742C-16.3996 131.933 -14.0885 136.684 -9.9172 139.687C-1.99485 145.564 8.25397 144.796 17.6829 143.371C20.2502 142.966 22.7356 142.382 25.1492 141.603C32.3797 139.272 38.9953 135.208 44.0634 129.335C56.8488 114.69 42.5312 94.2484 31.0525 82.3956" stroke="#1A1A1A" stroke-width="3" stroke-miterlimit="10"/>
<path opacity="0.11" d="M144.082 146.81C171.431 145.652 170.38 111.559 169.196 91.42C168.059 82.2729 165.271 67.6222 154.448 68.2474C149.877 68.4575 147.694 71.5321 146.541 75.5138C146.09 90.8768 137.989 101.643 128.811 113.547C119.095 126.148 126.618 144.868 142.426 146.687C142.985 146.753 143.539 146.789 144.082 146.805V146.81Z" stroke="#1A1A1A" stroke-width="3" stroke-miterlimit="10"/>
<path opacity="0.11" d="M68.9274 277.713C68.2356 279.255 67.9589 280.849 68.1178 282.489C68.2766 284.128 68.8762 285.814 69.9369 287.531C72.5042 291.467 76.6345 293.147 81.3234 293.45C97.2603 294.485 99.7354 278.169 104.906 267.1C106.054 265.025 107.33 263.072 108.693 261.197C115.513 251.834 124.527 244.476 132.168 235.559C134.663 233.366 135.032 227.744 132.675 224.834C132.045 223.399 131.215 222.026 130.205 220.745C122.585 210.798 109.805 208.144 97.7881 206.586C96.1483 206.386 94.5187 206.248 92.8994 206.171C91.275 206.094 89.6659 206.078 88.0671 206.125C84.562 206.278 80.6521 206.483 76.8959 207.144C75.0152 207.472 73.1755 207.913 71.4486 208.518C65.0687 210.48 60.5131 215.364 60.5234 222.425C61.7378 239.925 77.7619 254.151 70.6595 272.219C70.0701 274.167 69.4757 276.006 68.9274 277.723V277.713Z" stroke="#1A1A1A" stroke-width="3" stroke-miterlimit="10"/>
<path opacity="0.11" d="M177.841 80.8019C178.83 84.3941 181.516 87.1101 181.562 90.8201C181.659 91.9783 181.818 93.1312 182.038 94.2689C182.259 95.4065 182.54 96.5236 182.884 97.6151C187.26 111.81 205.062 108.535 214.681 101.479C222.946 95.6934 234.025 79.9359 226.083 71.4293C224.525 69.7588 222.419 68.7134 220.174 68.2676C217.176 67.6731 214.127 67.7398 211.053 67.8986H211.022C208.122 68.0472 205.257 67.1966 202.915 65.4799C198.769 62.4411 195.331 58.3467 189.248 60.0531C180.096 62.4872 175.054 72.5311 177.836 80.7917" stroke="#1A1A1A" stroke-width="3" stroke-miterlimit="10"/>
<path opacity="0.11" d="M166.527 8.62467C159.05 3.34652 149.509 0.671579 140.541 2.50612C131.578 4.34066 123.492 11.069 121.14 19.9138C119.434 26.3295 120.715 33.1143 120.464 39.7453C120.12 48.6156 116.928 57.3527 111.465 64.3476C107.278 69.7077 101.734 74.1813 99.0179 80.4177C95.8766 87.6227 97.3576 96.7083 102.892 102.289C108.426 107.874 117.763 109.376 124.599 105.497C131.056 101.838 134.458 94.515 136.605 87.4126C138.753 80.3101 140.116 72.7926 144.174 66.5818C149.13 58.9823 157.411 54.3652 164.569 48.795C171.733 43.2247 178.421 35.3126 177.765 26.2629C177.134 17.5975 170.006 11.0793 166.532 8.6298" stroke="#1A1A1A" stroke-width="3" stroke-miterlimit="10"/>
<path opacity="0.11" d="M130.948 399.833C138.348 394.452 143.954 386.279 145.102 377.198C146.25 368.123 142.483 358.299 134.863 353.226C129.339 349.547 122.503 348.578 116.308 346.206C108.021 343.029 100.775 337.192 95.9124 329.767C92.1818 324.073 89.7323 317.391 84.7053 312.81C78.8942 307.516 69.8188 305.994 62.7523 309.438C55.6857 312.882 51.2582 321.234 52.7289 328.962C54.1176 336.249 59.9543 341.835 65.9858 346.149C72.0223 350.464 78.6994 354.179 83.2755 360.016C88.8765 367.154 90.583 376.476 93.55 385.054C96.5222 393.627 101.857 402.508 110.635 404.798C119.044 406.986 127.51 402.339 130.948 399.838" stroke="#1A1A1A" stroke-width="3" stroke-miterlimit="10"/>
<path opacity="0.11" d="M89.7837 427.551C92.2229 418.732 91.5106 408.847 86.7552 401.027C81.9997 393.212 72.9346 387.878 63.8132 388.652C57.2027 389.215 51.2481 392.715 44.9195 394.719C36.4591 397.399 27.1531 397.343 18.7235 394.565C12.2616 392.433 6.17889 388.734 -0.605839 388.283C-8.45132 387.76 -16.4967 392.228 -19.8788 399.321C-23.2609 406.418 -21.5186 415.708 -15.5589 420.838C-9.93229 425.675 -1.88695 426.408 5.51783 426.024C12.9277 425.64 20.4657 424.384 27.6809 426.101C36.5103 428.197 43.6537 434.428 51.3147 439.281C58.9809 444.139 68.6865 447.762 76.9778 444.077C84.9207 440.552 88.6461 431.64 89.7786 427.541" stroke="#1A1A1A" stroke-width="3" stroke-miterlimit="10"/>
<path opacity="0.11" d="M148.519 273.961C146.213 271.799 143.533 269.657 140.613 268.094C137.692 266.531 134.535 265.542 131.281 265.691C127.023 265.885 123.922 267.884 121.596 270.656C119.274 273.428 117.727 276.98 116.594 280.28C113.115 293.608 105.326 305.092 102.062 318.313C101.057 323.504 103.368 328.254 107.54 331.257C115.462 337.135 125.711 336.366 135.14 334.942C137.707 334.537 140.192 333.953 142.606 333.174C149.836 330.842 156.452 326.779 161.52 320.906C174.306 306.261 159.988 285.819 148.509 273.966" stroke="#1A1A1A" stroke-width="3" stroke-miterlimit="10"/>
<path opacity="0.11" d="M141.571 552.489C154.105 540.503 148.935 520.021 135.329 511.437C131.015 509.193 126.715 506.969 123.302 503.976C119.357 500.517 117.143 495.49 116.994 490.248C116.343 466.88 92.7352 460.787 82.0201 475.008C75.5326 483.617 76.8188 495.808 84.6899 503.171C90.5727 508.67 97.0141 511.873 94.3597 528.209C93.6986 532.268 93.8729 536.439 95.1181 540.359C101.037 558.951 126.326 568.077 141.566 552.494" stroke="#1A1A1A" stroke-width="3" stroke-miterlimit="10"/>
<path opacity="0.11" d="M-9.69656 508.553C-10.3884 510.095 -10.6651 511.689 -10.5062 513.328C-10.3474 514.968 -9.7478 516.654 -8.68705 518.371C-6.11972 522.306 -1.98944 523.987 2.6994 524.29C18.6363 525.325 21.1114 509.009 26.282 497.94C27.4298 495.864 28.7058 493.912 30.0689 492.036C36.8895 482.674 45.9034 475.316 53.5439 466.399C56.0394 464.206 56.4084 458.584 54.0512 455.674C53.4209 454.239 52.5907 452.865 51.5812 451.584C43.9612 441.638 31.1809 438.983 19.1642 437.426C17.5243 437.226 15.8948 437.087 14.2755 437.011C12.6561 436.934 11.042 436.918 9.44314 436.964C5.93804 437.118 2.02811 437.323 -1.72808 437.984C-3.60874 438.312 -5.44841 438.753 -7.17534 439.358C-13.5552 441.32 -18.1108 446.204 -18.1006 453.265C-16.8861 470.765 -0.862065 484.99 -7.96451 503.059C-8.55381 505.006 -9.14825 506.846 -9.69656 508.563V508.553Z" stroke="#1A1A1A" stroke-width="3" stroke-miterlimit="10"/>
<path opacity="0.11" d="M50.838 623.426C58.2377 618.046 63.8438 609.872 64.9917 600.792C66.1395 591.717 62.3731 581.893 54.7531 576.82C49.229 573.141 42.393 572.172 36.1976 569.799C27.9114 566.622 20.6655 560.786 15.8024 553.36C12.0718 547.667 9.62237 540.985 4.59531 536.404C-1.21577 531.11 -10.2911 529.588 -17.3577 533.032C-24.4243 536.475 -28.8518 544.828 -27.381 552.556C-25.9923 559.843 -20.1556 565.428 -14.1242 569.743C-8.08761 574.058 -1.41051 577.773 3.1656 583.61C8.76658 590.748 10.473 600.069 13.44 608.648C16.4122 617.221 21.7467 626.101 30.5249 628.392C38.934 630.58 47.3996 625.932 50.838 623.432" stroke="#1A1A1A" stroke-width="3" stroke-miterlimit="10"/>
<path opacity="0.11" d="M68.4095 497.556C66.1035 495.393 63.4234 493.251 60.5025 491.688C57.5816 490.125 54.425 489.136 51.171 489.285C46.9126 489.479 43.8123 491.478 41.4858 494.25C39.1593 497.023 37.6169 500.574 36.4844 503.874C33.0049 517.203 25.2158 528.686 21.9515 541.907C20.9472 547.098 23.2583 551.849 27.4295 554.852C35.3519 560.729 45.6007 559.961 55.0296 558.536C57.597 558.131 60.0823 557.547 62.4959 556.768C69.7265 554.437 76.3421 550.373 81.4101 544.5C94.1955 529.855 79.8779 509.413 68.3992 497.561" stroke="#1A1A1A" stroke-width="3" stroke-miterlimit="10"/>
<path opacity="0.11" d="M97.9467 158.969C112.905 150.191 112.587 129.063 101.319 117.584C97.6342 114.407 93.9599 111.256 91.3311 107.556C88.2872 103.282 87.288 97.8811 88.3538 92.7413C93.099 69.8505 71.5253 58.4897 57.8277 69.8608C49.5364 76.748 47.9786 88.9082 53.9485 97.8862C58.4068 104.589 63.9411 109.191 57.5971 124.477C56.0188 128.274 55.2296 132.374 55.5422 136.478C57.0232 155.93 79.5347 170.638 97.9519 158.974" stroke="#1A1A1A" stroke-width="3" stroke-miterlimit="10"/>
<path opacity="0.11" d="M32.4464 248.083C33.8505 234.662 20.4706 225.11 8.07469 226.868C4.38511 227.714 0.716037 228.554 -2.81981 228.498C-6.90397 228.431 -10.7473 226.566 -13.4735 223.527C-25.6235 209.993 -42.698 218.264 -41.8935 232.09C-41.4067 240.463 -34.5092 247.048 -26.1308 247.453C-19.8739 247.755 -14.4369 246.413 -7.7905 257.44C-6.14044 260.182 -3.93694 262.57 -1.22099 264.266C11.6515 272.316 31.2473 264.999 32.4413 248.078" stroke="#1A1A1A" stroke-width="3" stroke-miterlimit="10"/>
<path opacity="0.11" d="M11.7183 360.81C11.8566 362.173 12.3127 363.408 13.0865 364.489C13.8654 365.576 14.9671 366.519 16.4122 367.287C19.8148 369.004 23.3917 368.507 26.8097 366.821C38.4216 361.076 33.5329 348.619 32.6617 338.744C32.6259 336.823 32.7284 334.932 32.9231 333.061C33.907 323.719 37.2481 314.895 38.9904 305.533C39.8513 302.981 37.8272 298.881 34.9934 297.795C33.9685 297.042 32.8257 296.417 31.5959 295.93C22.2079 292.04 12.159 295.366 3.09388 299.153C1.86402 299.676 0.659764 300.239 -0.508603 300.844C-1.67697 301.449 -2.81458 302.094 -3.92145 302.776C-6.31968 304.303 -8.97925 306.04 -11.3519 308.029C-12.5356 309.023 -13.6476 310.078 -14.6212 311.206C-18.3006 315.177 -19.5202 320.45 -16.6403 325.405C-8.68204 337.197 8.34127 340.676 10.6934 356.239C11.0726 357.843 11.4005 359.38 11.7131 360.805L11.7183 360.81Z" stroke="#1A1A1A" stroke-width="3" stroke-miterlimit="10"/>
<path opacity="0.11" d="M137.225 486.067C137.61 487.573 138.327 488.88 139.377 489.966C140.433 491.053 141.827 491.924 143.579 492.549C147.679 493.907 151.615 492.749 155.161 490.279C167.218 481.89 159.645 468.736 157.016 457.811C156.652 455.658 156.447 453.522 156.355 451.395C155.893 440.752 158.158 430.298 158.543 419.501C159.081 416.493 156.119 412.239 152.762 411.496C151.486 410.825 150.103 410.312 148.642 409.974C137.461 407.187 126.751 412.603 117.219 418.373C115.928 419.167 114.673 420.003 113.463 420.874C112.254 421.75 111.086 422.662 109.963 423.61C107.534 425.727 104.839 428.12 102.512 430.744C101.349 432.055 100.278 433.429 99.3814 434.853C95.9173 439.921 95.4407 446.045 99.4942 451.118C110.399 463.007 130.072 464.052 135.324 481.117C136.016 482.854 136.646 484.519 137.23 486.067H137.225Z" stroke="#1A1A1A" stroke-width="3" stroke-miterlimit="10"/>
</svg>
